<?xml version="1.0" encoding="UTF-8" standalone="no"?>
<!-- Created with Inkscape (http://www.inkscape.org/) -->

<svg
   width="100"
   height="100"
   viewBox="0 0 100 100"
   version="1.1"
   id="svg1"
   inkscape:version="1.4.3 (0d15f75, 2025-12-25)"
   sodipodi:docname="stripes.svg"
   inkscape:export-filename="stripes.png"
   inkscape:export-xdpi="1843.2"
   inkscape:export-ydpi="1843.2"
   xmlns:inkscape="http://www.inkscape.org/namespaces/inkscape"
   xmlns:sodipodi="http://sodipodi.sourceforge.net/DTD/sodipodi-0.dtd"
   xmlns="http://www.w3.org/2000/svg"
   xmlns:svg="http://www.w3.org/2000/svg">
  <sodipodi:namedview
     id="namedview1"
     pagecolor="#ffffff"
     bordercolor="#000000"
     borderopacity="0.25"
     inkscape:showpageshadow="2"
     inkscape:pageopacity="0.0"
     inkscape:pagecheckerboard="0"
     inkscape:deskcolor="#d1d1d1"
     inkscape:document-units="px"
     showgrid="true"
     showguides="true"
     inkscape:zoom="7.2407734"
     inkscape:cx="49.235072"
     inkscape:cy="52.135314"
     inkscape:window-width="1920"
     inkscape:window-height="1137"
     inkscape:window-x="0"
     inkscape:window-y="0"
     inkscape:window-maximized="1"
     inkscape:current-layer="g1521">
    <inkscape:grid
       id="grid1"
       units="px"
       originx="0"
       originy="0"
       spacingx="10"
       spacingy="10"
       empcolor="#0099e5"
       empopacity="0.30196078"
       color="#0099e5"
       opacity="0.14901961"
       empspacing="1"
       enabled="true"
       visible="true" />
  </sodipodi:namedview>
  <defs
     id="defs1">
    <inkscape:path-effect
       effect="tiling"
       id="path-effect22"
       is_visible="true"
       lpeversion="1.3.1"
       unit="px"
       seed="1;1"
       lpesatellites=""
       num_rows="3"
       num_cols="3"
       gapx="0"
       gapy="0"
       offset="0"
       offset_type="false"
       scale="0"
       rotate="0"
       mirrorrowsx="false"
       mirrorrowsy="false"
       mirrorcolsx="false"
       mirrorcolsy="false"
       mirrortrans="false"
       shrink_interp="false"
       split_items="false"
       link_styles="false"
       interpolate_scalex="false"
       interpolate_scaley="true"
       interpolate_rotatex="false"
       interpolate_rotatey="true"
       random_scale="false"
       random_rotate="false"
       random_gap_y="false"
       random_gap_x="false"
       transformorigin="" />
    <clipPath
       clipPathUnits="userSpaceOnUse"
       id="clipPath140">
      <rect
         style="fill:#ffffff;fill-opacity:1;stroke-width:0.764785"
         id="rect141"
         width="76.139549"
         height="76.818954"
         x="-135.38548"
         y="-150.7704" />
    </clipPath>
    <clipPath
       clipPathUnits="userSpaceOnUse"
       id="clipPath141">
      <rect
         style="fill:#ffffff;fill-opacity:1;stroke-width:0.764785"
         id="rect142"
         width="76.139549"
         height="76.818954"
         x="-223.63963"
         y="-174.62904" />
    </clipPath>
    <clipPath
       clipPathUnits="userSpaceOnUse"
       id="clipPath142">
      <rect
         style="fill:#ffffff;fill-opacity:1;stroke-width:0.764785"
         id="rect143"
         width="76.139549"
         height="76.818954"
         x="-194.22159"
         y="-166.67616" />
    </clipPath>
    <clipPath
       clipPathUnits="userSpaceOnUse"
       id="clipPath143">
      <rect
         style="fill:#ffffff;fill-opacity:1;stroke-width:0.764785"
         id="rect144"
         width="76.139549"
         height="76.818954"
         x="-164.80353"
         y="-158.72328" />
    </clipPath>
    <clipPath
       clipPathUnits="userSpaceOnUse"
       id="clipPath1521">
      <rect
         style="fill:#ffffff;fill-opacity:1;stroke-width:0.7648"
         id="rect1522"
         width="76.480011"
         height="76.480003"
         x="-44.93586"
         y="-222.95216"
         transform="matrix(0.70395901,-0.7102406,0.70395902,0.71024059,0,0)" />
    </clipPath>
  </defs>
  <g
     inkscape:label="Layer 1"
     inkscape:groupmode="layer"
     id="layer1">
    <g
       id="g4"
       transform="matrix(1.3133779,0,0,1.301762,226.969,214.58751)">
      <g
         id="g1488">
        <g
           id="g1521"
           transform="matrix(0.70710678,0.71341645,-0.70085292,0.70710678,-128.07735,59.096375)"
           clip-path="url(#clipPath1521)">
          <g
             id="g22"
             inkscape:path-effect="#path-effect22"
             transform="translate(21.535514,-21.72768)"
             style="stroke-width:0;stroke-dasharray:none">
            <path
               id="rect13"
               style="fill:#00c0ff;stroke-width:0;stroke-dasharray:none"
               transform="matrix(0.70395902,-0.71024059,0.70395902,0.71024059,0,0)"
               d="m -37.287855,-222.95216 v 7.648 h -7.648001 z m 15.296001,15.296 v 7.648 h -7.648001 z m 15.296,15.296 0,7.648 h -7.648001 z m -45.888001,-15.296 v 7.648 h -7.648001 z m 15.296001,15.296 v 7.648 h -7.648001 z m 15.296,15.296 0,7.648 h -7.648001 z m -45.888001,-15.296 v 7.648 h -7.648001 z m 15.296001,15.296 v 7.648 h -7.648001 z m 15.296,15.296 0,7.648 -7.648001,0 z"
               sodipodi:nodetypes="cccc"
               inkscape:original-d="m -37.287855,-222.95216 v 7.648 h -7.648001 z" />
            <path
               id="rect14"
               style="fill:#00c0ff;stroke-width:0;stroke-dasharray:none"
               transform="matrix(0.70395902,-0.71024059,0.70395902,0.71024059,0,0)"
               d="m -44.935856,-215.30417 7.647999,0 -7.647999,7.64801 z m 15.296001,15.296 h 7.647999 l -7.647999,7.64801 z m 15.296,15.296 h 7.647999 l -7.647999,7.64801 z m -45.888001,-15.296 7.647999,0 -7.647999,7.64801 z m 15.296001,15.296 h 7.647999 l -7.647999,7.64801 z m 15.296,15.296 h 7.647999 l -7.647999,7.64801 z m -45.888001,-15.296 h 7.647999 l -7.647999,7.64801 z m 15.296001,15.296 h 7.647999 l -7.647999,7.64801 z m 15.296,15.296 7.647999,0 -7.647999,7.64801 z"
               sodipodi:nodetypes="cccc"
               inkscape:original-d="m -44.935856,-215.30417 h 7.647999 l -7.647999,7.64801 z" />
            <path
               id="rect15"
               style="fill:#00c0ff;stroke-width:0;stroke-dasharray:none"
               transform="matrix(0.70395902,-0.71024059,0.70395902,0.71024059,0,0)"
               d="m -37.287857,-215.30417 7.648002,0 0,7.64801 z m 15.296001,15.296 7.648002,0 v 7.64801 z m 15.296,15.296 h 7.648002 v 7.64801 z m -45.888001,-15.296 7.648002,0 0,7.64801 z m 15.296001,15.296 7.648002,0 v 7.64801 z m 15.296,15.296 h 7.648002 v 7.64801 z m -45.888001,-15.296 h 7.648002 l 0,7.64801 z m 15.296001,15.296 h 7.648002 v 7.64801 z m 15.296,15.296 h 7.648002 v 7.64801 z"
               sodipodi:nodetypes="cccc"
               inkscape:original-d="m -37.287857,-215.30417 h 7.648002 v 7.64801 z" />
            <path
               id="rect16"
               style="fill:#00c0ff;stroke-width:0;stroke-dasharray:none"
               transform="matrix(0.70395902,-0.71024059,0.70395902,0.71024059,0,0)"
               d="m -37.287857,-222.95216 7.648002,7.64799 -7.648002,0 z m 15.296001,15.296 7.648002,7.64799 -7.648002,0 z m 15.296,15.296 7.648002,7.64799 h -7.648002 z m -45.888001,-15.296 7.648002,7.64799 -7.648002,0 z m 15.296001,15.296 7.648002,7.64799 -7.648002,0 z m 15.296,15.296 7.648002,7.64799 h -7.648002 z m -45.888001,-15.296 7.648002,7.64799 h -7.648002 z m 15.296001,15.296 7.648002,7.64799 h -7.648002 z m 15.296,15.296 7.648002,7.64799 h -7.648002 z"
               sodipodi:nodetypes="cccc"
               inkscape:original-d="m -37.287857,-222.95216 7.648002,7.64799 h -7.648002 z" />
            <path
               id="rect19"
               style="fill:#00ffff;stroke-width:0;stroke-dasharray:none"
               transform="matrix(0.70395902,-0.71024059,0.70395902,0.71024059,0,0)"
               d="m -44.935856,-222.95216 h 7.648001 l -7.648001,7.648 z m 15.296001,15.296 7.648001,0 -7.648001,7.648 z m 15.296,15.296 7.648001,0 -7.648001,7.648 z m -45.888001,-15.296 h 7.648001 l -7.648001,7.648 z m 15.296001,15.296 7.648001,0 -7.648001,7.648 z m 15.296,15.296 7.648001,0 -7.648001,7.648 z m -45.888001,-15.296 7.648001,0 -7.648001,7.648 z m 15.296001,15.296 7.648001,0 -7.648001,7.648 z m 15.296,15.296 7.648001,0 -7.648001,7.648 z"
               sodipodi:nodetypes="cccc"
               inkscape:original-d="m -44.935856,-222.95216 h 7.648001 l -7.648001,7.648 z" />
            <path
               id="rect20"
               style="fill:#00ffff;stroke-width:0;stroke-dasharray:none"
               transform="matrix(0.70395902,-0.71024059,0.70395902,0.71024059,0,0)"
               d="m -37.287857,-222.95216 h 7.648001 v 7.648 z m 15.296001,15.296 h 7.648001 v 7.648 z m 15.296,15.296 7.648001,0 v 7.648 z m -45.888001,-15.296 h 7.648001 v 7.648 z m 15.296001,15.296 h 7.648001 v 7.648 z m 15.296,15.296 7.648001,0 v 7.648 z m -45.888001,-15.296 h 7.648001 l 0,7.648 z m 15.296001,15.296 h 7.648001 l 0,7.648 z m 15.296,15.296 7.648001,0 0,7.648 z"
               sodipodi:nodetypes="cccc"
               inkscape:original-d="m -37.287857,-222.95216 h 7.648001 v 7.648 z" />
            <path
               id="rect21"
               style="fill:#00ffff;stroke-width:0;stroke-dasharray:none"
               transform="matrix(0.70395902,-0.71024059,0.70395902,0.71024059,0,0)"
               d="m -37.287857,-215.30417 7.648001,7.648 h -7.648001 z m 15.296001,15.296 7.648001,7.648 h -7.648001 z m 15.296,15.296 7.648001,7.648 h -7.648001 z m -45.888001,-15.296 7.648001,7.648 h -7.648001 z m 15.296001,15.296 7.648001,7.648 h -7.648001 z m 15.296,15.296 7.648001,7.648 h -7.648001 z m -45.888001,-15.296 7.648001,7.648 h -7.648001 z m 15.296001,15.296 7.648001,7.648 h -7.648001 z m 15.296,15.296 7.648001,7.648 -7.648001,0 z"
               sodipodi:nodetypes="cccc"
               inkscape:original-d="m -37.287857,-215.30417 7.648001,7.648 h -7.648001 z" />
            <path
               id="rect22"
               style="fill:#00ffff;stroke-width:0;stroke-dasharray:none"
               transform="matrix(0.70395902,-0.71024059,0.70395902,0.71024059,0,0)"
               d="m -37.287854,-215.30417 v 7.648 h -7.648002 z m 15.296001,15.296 v 7.648 h -7.648002 z m 15.296,15.296 v 7.648 h -7.648002 z m -45.888001,-15.296 v 7.648 h -7.648002 z m 15.296001,15.296 v 7.648 h -7.648002 z m 15.296,15.296 v 7.648 h -7.648002 z m -45.888001,-15.296 v 7.648 h -7.648002 z m 15.296001,15.296 v 7.648 h -7.648002 z m 15.296,15.296 v 7.648 h -7.648002 z"
               sodipodi:nodetypes="cccc"
               inkscape:original-d="m -37.287854,-215.30417 v 7.648 h -7.648002 z" />
          </g>
        </g>
      </g>
    </g>
  </g>
</svg>
