<?xml version="1.0" encoding="UTF-8" standalone="no"?>
<!-- Created with Inkscape (http://www.inkscape.org/) -->

<svg
   width="72"
   height="36"
   viewBox="0 0 72 36"
   version="1.1"
   id="svg1"
   inkscape:version="1.4.3 (0d15f75, 2025-12-25)"
   sodipodi:docname="crys_bush.svg"
   xmlns:inkscape="http://www.inkscape.org/namespaces/inkscape"
   xmlns:sodipodi="http://sodipodi.sourceforge.net/DTD/sodipodi-0.dtd"
   xmlns="http://www.w3.org/2000/svg"
   xmlns:svg="http://www.w3.org/2000/svg">
  <sodipodi:namedview
     id="namedview1"
     pagecolor="#ffffff"
     bordercolor="#000000"
     borderopacity="0.25"
     inkscape:showpageshadow="2"
     inkscape:pageopacity="0.0"
     inkscape:pagecheckerboard="0"
     inkscape:deskcolor="#d1d1d1"
     inkscape:document-units="px"
     inkscape:zoom="11.007296"
     inkscape:cx="35.794442"
     inkscape:cy="22.348814"
     inkscape:window-width="1920"
     inkscape:window-height="1137"
     inkscape:window-x="0"
     inkscape:window-y="0"
     inkscape:window-maximized="1"
     inkscape:current-layer="layer1" />
  <defs
     id="defs1" />
  <g
     inkscape:label="Layer 1"
     inkscape:groupmode="layer"
     id="layer1">
    <path
       style="fill:none;stroke:#009738;stroke-width:5;stroke-linecap:round;stroke-linejoin:round;stroke-dasharray:none;stroke-opacity:1;paint-order:markers fill stroke"
       d="m 41.254579,36 c 0,0 5.948412,-13.855632 0.425742,-16.985142 -3.85439,-2.184154 -9.707365,-1.833797 -9.835845,1.892113 -0.12848,3.72591 3.605545,7.103875 3.605545,7.103875"
       id="path10"
       sodipodi:nodetypes="cssc" />
    <path
       style="fill:none;stroke:#009738;stroke-width:5;stroke-linecap:round;stroke-linejoin:round;stroke-dasharray:none;stroke-opacity:1;paint-order:markers fill stroke"
       d="m 20.68718,36 c 0,0 4.49483,-16.399399 -1.02784,-19.528909 -3.85439,-2.184154 -7.38788,0.616703 -7.51636,4.342613 -0.12848,3.72591 3.64813,6.5612 3.64813,6.5612"
       id="path4"
       sodipodi:nodetypes="cssc" />
    <path
       style="fill:none;stroke:#00b266;stroke-width:5;stroke-linecap:round;stroke-linejoin:round;stroke-dasharray:none;stroke-opacity:1;paint-order:markers fill stroke"
       d="m 15.382805,35.717345 c 0,0 0.899358,-11.17773 -4.239829,-14.903641 -5.1391866,-3.72591 -8.3511781,-1.413276 -8.4796577,2.312634 -0.1284797,3.72591 3.3404711,2.441114 3.3404711,2.441114"
       id="path1" />
    <path
       style="fill:none;stroke:#00b266;stroke-width:5;stroke-linecap:round;stroke-linejoin:round;stroke-dasharray:none;stroke-opacity:1;paint-order:markers fill stroke"
       d="m 35.134897,36 c 0,0 4.210351,-6.846377 -0.06078,-11.542234 -3.229639,-3.550795 -5.758539,-2.333569 -5.887019,1.392341 C 29.058617,29.576017 31.661055,36 31.661055,36"
       id="path14"
       sodipodi:nodetypes="cssc" />
    <path
       style="fill:none;stroke:#00e166;stroke-width:5;stroke-linecap:round;stroke-linejoin:round;stroke-dasharray:none;stroke-opacity:1;paint-order:markers fill stroke"
       d="m 19.808081,36 c 0,0 -0.899358,-11.17773 4.239829,-14.903641 5.139186,-3.72591 8.351177,-1.413276 8.479657,2.312634 0.12848,3.72591 -3.340471,2.441114 -3.340471,2.441114"
       id="path2" />
    <path
       style="fill:none;stroke:#00e166;stroke-width:5;stroke-linecap:round;stroke-linejoin:round;stroke-dasharray:none;stroke-opacity:1;paint-order:markers fill stroke"
       d="m 25.804104,36 c 0,0 0.06268,-7.334684 3.936921,-12.362996 C 31.844476,20.906971 36,18 39.432078,20.50183 c 3.012657,2.196091 -2.522831,9.163928 -2.522831,9.163928"
       id="path13"
       sodipodi:nodetypes="cssc" />
    <path
       style="fill:none;stroke:#00ee00;stroke-width:5;stroke-linecap:round;stroke-linejoin:round;stroke-dasharray:none;stroke-opacity:1;paint-order:markers fill stroke"
       d="m 28.287739,36 c -1.150847,-10.130282 5.371658,-18.231457 0.479164,-19.785868 -6.049731,-1.92208 -10.372098,0.385439 -10.500577,4.111349 -0.12848,3.72591 3.094937,5.566605 3.094937,5.566605"
       id="path8"
       sodipodi:nodetypes="cssc" />
    <path
       style="fill:none;stroke:#00e166;stroke-width:5;stroke-linecap:round;stroke-linejoin:round;stroke-dasharray:none;stroke-opacity:1;paint-order:markers fill stroke"
       d="m 39.364361,36 c 0,0 -0.899358,-11.17773 4.239829,-14.903641 5.139186,-3.72591 8.351177,-1.413276 8.479657,2.312634 0.12848,3.72591 -3.340471,2.441114 -3.340471,2.441114"
       id="path12" />
    <path
       style="fill:none;stroke:#009738;stroke-width:5;stroke-linecap:round;stroke-linejoin:round;stroke-dasharray:none;stroke-opacity:1;paint-order:markers fill stroke"
       d="m 59.464073,36 c 0,0 5.948412,-13.855632 0.425742,-16.985142 -3.85439,-2.184154 -11.017959,3.109339 -11.146439,6.835249 -0.12848,3.72591 4.916139,2.160739 4.916139,2.160739"
       id="path17"
       sodipodi:nodetypes="cssc" />
    <path
       style="fill:none;stroke:#00cb44;stroke-width:5;stroke-linecap:round;stroke-linejoin:round;stroke-dasharray:none;stroke-opacity:1;paint-order:markers fill stroke"
       d="m 46.284034,36 c 0,0 -4.668248,-13.152794 0.470939,-16.878705 5.139186,-3.72591 12.083941,-2.265494 12.170611,3.902259 0.07765,5.526031 -1.20686,6.809423 -1.20686,6.809423"
       id="path9"
       sodipodi:nodetypes="cssc" />
    <path
       style="fill:none;stroke:#00e166;stroke-width:5;stroke-linecap:round;stroke-linejoin:round;stroke-dasharray:none;stroke-opacity:1;paint-order:markers fill stroke"
       d="m 55.05743,36 c 0,0 -0.899358,-11.17773 4.239829,-14.903641 5.139186,-3.72591 8.351177,-1.413276 8.479657,2.312634 0.12848,3.72591 -3.340471,2.441114 -3.340471,2.441114"
       id="path16" />
    <path
       style="fill:none;stroke:#00ff00;stroke-width:5;stroke-linecap:round;stroke-linejoin:round;stroke-dasharray:none;stroke-opacity:1;paint-order:markers fill stroke"
       d="m 50.362582,36 c 0,0 5.999985,-20.021846 -0.119352,-21.709281 -5.943913,-1.639061 -8.296368,2.797075 -8.424848,6.522985 -0.12848,3.72591 3.64813,6.5612 3.64813,6.5612"
       id="path15"
       sodipodi:nodetypes="cssc" />
  </g>
</svg>
